<svg viewBox="0 0 240 240" xmlns="http://www.w3.org/2000/svg" role="img" aria-label="Kang Cageur memberi jempol dan konfeti">
  <defs>
    <linearGradient id="bg8" x1="0" y1="0" x2="1" y2="1">
      <stop offset="0" stop-color="#219a90"/>
      <stop offset="1" stop-color="#1c3167"/>
    </linearGradient>
  </defs>
  <rect width="240" height="240" rx="36" fill="url(#bg8)"/>
  <rect x="30" y="30" width="8" height="8" rx="2" fill="#f7b626"/>
  <rect x="200" y="40" width="7" height="7" rx="2" fill="#72d2c5"/>
  <circle cx="205" cy="70" r="4" fill="#ffffff"/>
  <circle cx="34" cy="80" r="4" fill="#f7b626"/>
  <path d="M62 216 C58 156 78 126 120 126 C162 126 182 156 178 216 Z" fill="#ffffff"/>
  <path d="M104 130 L120 150 L136 130" fill="none" stroke="#146360" stroke-width="6" stroke-linecap="round" stroke-linejoin="round"/>
  <circle cx="120" cy="92" r="46" fill="#f2c39a"/>
  <path d="M70 78 Q120 40 170 78 L164 96 Q120 66 76 96 Z" fill="#1c3167"/>
  <circle cx="150" cy="70" r="5" fill="#f7b626"/>
  <circle cx="104" cy="94" r="5" fill="#162650"/>
  <circle cx="136" cy="94" r="5" fill="#162650"/>
  <path d="M100 110 Q120 128 140 110" fill="none" stroke="#162650" stroke-width="4" stroke-linecap="round"/>
  <circle cx="188" cy="188" r="30" fill="#ffffff"/>
  <path d="M182 200 v-14 a4 4 0 0 1 4-4 h4 l2-10 a3 3 0 0 1 6 2 l-1 8 h6 a3 3 0 0 1 3 3 v10 a5 5 0 0 1-5 5 h-15 a4 4 0 0 1-4-4 Z" fill="#146360"/>
</svg>
